<?xml version="1.0" encoding="utf-8"?>
<!-- Generator: Adobe Illustrator 27.8.1, SVG Export Plug-In . SVG Version: 6.00 Build 0)  -->
<svg version="1.1" id="Layer_1" xmlns="http://www.w3.org/2000/svg" xmlns:xlink="http://www.w3.org/1999/xlink" x="0px" y="0px"
	 viewBox="0 0 1920 1920" style="enable-background:new 0 0 1920 1920;" xml:space="preserve">
<style type="text/css">
	.st0{fill:#0071BC;}
	.st1{fill:url #fff0f0;}
	.st2{fill:url(#SVGID_00000070828142859754072680000006770362289357869750_);}
	.st3{fill:url(#SVGID_00000127003058255210584090000006461171314843510195_);}
	.st4{fill:url(#SVGID_00000049921226238860954240000015614009851918688646_);}
	.st5{fill:url(#SVGID_00000031888370015066023630000001483046413675873177_);}
	.st6{fill:url(#SVGID_00000056417428706133731140000002207278003196499122_);}
	.st7{fill:url(#SVGID_00000179625271758631892390000009693389058532299427_);}
	.st8{fill:url(#SVGID_00000052094807116823422580000004063654120293820547_);}
</style>
<g>
	<g>
		<path class="st0" d="M432.72,1474.05v-0.23c0-20.82,13.61-32.21,28.38-32.21c9.42,0,15.23,4.3,19.42,9.3v-30.7h17.68v84.89h-17.68
			v-8.96c-4.3,5.81-10.23,10.12-19.42,10.12C446.56,1506.27,432.72,1494.87,432.72,1474.05z M480.75,1474.05v-0.23
			c0-10.35-6.86-17.21-15.12-17.21s-15.23,6.75-15.23,17.21v0.23c0,10.35,6.98,17.21,15.23,17.21S480.75,1484.41,480.75,1474.05z"/>
		<path class="st0" d="M499.36,1474.29v-0.23c0-17.79,12.68-32.44,30.82-32.44c20.82,0,30.35,16.17,30.35,33.84
			c0,1.4-0.12,3.03-0.23,4.65h-43.38c1.74,8.02,7.33,12.21,15.23,12.21c5.93,0,10.24-1.86,15.12-6.39l10.12,8.96
			c-5.82,7.21-14.19,11.63-25.47,11.63C513.19,1506.5,499.36,1493.36,499.36,1474.29z M543.31,1469.06
			c-1.05-7.91-5.7-13.26-13.14-13.26c-7.33,0-12.09,5.23-13.49,13.26H543.31z"/>
		<path class="st0" d="M557.15,1496.85l7.56-11.63c6.75,4.89,13.84,7.44,19.65,7.44c5.12,0,7.44-1.86,7.44-4.65v-0.23
			c0-3.84-6.05-5.12-12.91-7.21c-8.72-2.56-18.61-6.63-18.61-18.72v-0.23c0-12.68,10.23-19.77,22.79-19.77
			c7.91,0,16.51,2.67,23.26,7.21l-6.74,12.21c-6.16-3.6-12.33-5.81-16.86-5.81c-4.3,0-6.51,1.86-6.51,4.31v0.23
			c0,3.49,5.93,5.12,12.67,7.44c8.72,2.9,18.84,7.09,18.84,18.49v0.23c0,13.84-10.35,20.12-23.84,20.12
			C575.18,1506.27,565.41,1503.36,557.15,1496.85z"/>
		<path class="st0" d="M609.13,1420.21h18.61v15.7h-18.61V1420.21z M609.6,1442.78h17.68v62.33H609.6V1442.78z"/>
		<path class="st0" d="M632.62,1517.43l6.05-13.26c6.4,3.61,12.79,5.7,21.05,5.7c12.09,0,17.79-5.82,17.79-16.98v-3.02
			c-5.23,6.28-10.93,10.12-20.35,10.12c-14.53,0-27.68-10.58-27.68-29.07v-0.24c0-18.61,13.37-29.07,27.68-29.07
			c9.65,0,15.35,4.07,20.12,9.3v-8.14h17.68v48.26c0,11.16-2.67,19.31-7.91,24.54c-5.81,5.81-14.77,8.37-26.86,8.37
			C650.06,1523.94,640.53,1521.62,632.62,1517.43z M677.51,1470.92v-0.24c0-8.49-6.63-14.42-15.23-14.42
			c-8.61,0-15.12,5.93-15.12,14.42v0.24c0,8.6,6.51,14.42,15.12,14.42C670.88,1485.33,677.51,1479.4,677.51,1470.92z"/>
		<path class="st0" d="M699.13,1442.78h17.68v8.83c4.07-5.23,9.3-10,18.26-10c13.37,0,21.17,8.84,21.17,23.14v40.35h-17.68v-34.77
			c0-8.37-3.95-12.67-10.7-12.67c-6.74,0-11.05,4.3-11.05,12.67v34.77h-17.68V1442.78z"/>
		<path class="st0" d="M830.42,1497.2c-6.63,5.47-14.42,9.07-23.84,9.07c-15.58,0-27.33-9.07-27.33-23.49v-0.23
			c0-10.35,5.58-17.68,15.82-22.33c-3.95-5.58-5.7-10.7-5.7-16.28v-0.23c0-11.16,8.96-21.4,24.65-21.4
			c13.84,0,22.91,9.07,22.91,20.47v0.23c0,10.93-6.98,17.33-17.09,21.28l10.81,10.82c2.67-4.19,5.35-8.96,7.91-13.96l13.14,7.21
			c-3.14,5.7-6.63,11.75-10.7,17.21l11.98,11.98l-13.14,9.19L830.42,1497.2z M820.42,1486.96l-15.58-15.81
			c-5.35,2.79-7.56,6.74-7.56,10.7v0.24c0,5.7,4.77,9.54,11.4,9.54C812.75,1491.62,816.7,1489.87,820.42,1486.96z M821.35,1444.05
			v-0.23c0-4.65-3.14-7.56-7.67-7.56c-4.77,0-7.91,3.37-7.91,8.25v0.24c0,3.6,1.39,6.28,4.77,10.12
			C817.63,1452.19,821.35,1449.17,821.35,1444.05z"/>
		<path class="st0" d="M872.98,1474.05v-0.23c0-20.82,13.61-32.21,28.38-32.21c9.42,0,15.23,4.3,19.42,9.3v-30.7h17.68v84.89h-17.68
			v-8.96c-4.3,5.81-10.23,10.12-19.42,10.12C886.82,1506.27,872.98,1494.87,872.98,1474.05z M921.01,1474.05v-0.23
			c0-10.35-6.86-17.21-15.12-17.21c-8.26,0-15.23,6.75-15.23,17.21v0.23c0,10.35,6.98,17.21,15.23,17.21
			C914.15,1491.27,921.01,1484.41,921.01,1474.05z"/>
		<path class="st0" d="M939.61,1474.29v-0.23c0-17.79,12.68-32.44,30.82-32.44c20.82,0,30.35,16.17,30.35,33.84
			c0,1.4-0.12,3.03-0.23,4.65h-43.38c1.74,8.02,7.33,12.21,15.23,12.21c5.93,0,10.24-1.86,15.12-6.39l10.12,8.96
			c-5.82,7.21-14.19,11.63-25.47,11.63C953.45,1506.5,939.61,1493.36,939.61,1474.29z M983.57,1469.06
			c-1.05-7.91-5.7-13.26-13.14-13.26c-7.33,0-12.09,5.23-13.49,13.26H983.57z"/>
		<path class="st0" d="M993.8,1442.78h18.72l13.95,41.75l14.07-41.75h18.37l-24.54,62.79h-16.05L993.8,1442.78z"/>
		<path class="st0" d="M1051.02,1474.29v-0.23c0-17.79,12.68-32.44,30.82-32.44c20.82,0,30.35,16.17,30.35,33.84
			c0,1.4-0.12,3.03-0.23,4.65h-43.38c1.74,8.02,7.33,12.21,15.23,12.21c5.93,0,10.24-1.86,15.12-6.39l10.12,8.96
			c-5.82,7.21-14.19,11.63-25.47,11.63C1064.85,1506.5,1051.02,1493.36,1051.02,1474.29z M1094.97,1469.06
			c-1.05-7.91-5.7-13.26-13.14-13.26c-7.33,0-12.09,5.23-13.49,13.26H1094.97z"/>
		<path class="st0" d="M1114.51,1420.21h17.68v84.89h-17.68V1420.21z"/>
		<path class="st0" d="M1134.16,1474.29v-0.23c0-17.91,14.42-32.44,33.84-32.44c19.3,0,33.61,14.3,33.61,32.21v0.23
			c0,17.91-14.42,32.45-33.84,32.45C1148.46,1506.5,1134.16,1492.2,1134.16,1474.29z M1184.16,1474.29v-0.23
			c0-9.19-6.63-17.21-16.4-17.21c-10.12,0-16.16,7.79-16.16,16.98v0.23c0,9.19,6.63,17.21,16.4,17.21
			C1178.12,1491.27,1184.16,1483.47,1184.16,1474.29z"/>
		<path class="st0" d="M1202.77,1442.78h17.67v8.95c4.3-5.81,10.24-10.12,19.42-10.12c14.54,0,28.38,11.4,28.38,32.21v0.23
			c0,20.82-13.61,32.21-28.38,32.21c-9.42,0-15.23-4.31-19.42-9.3v26.75h-17.67V1442.78z M1250.56,1474.05v-0.23
			c0-10.35-6.98-17.21-15.24-17.21c-8.25,0-15.12,6.86-15.12,17.21v0.23c0,10.35,6.86,17.21,15.12,17.21
			C1243.59,1491.27,1250.56,1484.52,1250.56,1474.05z"/>
		<path class="st0" d="M1269.63,1442.78h17.68v8.83c4.07-5.23,9.42-10,18.37-10c8.14,0,14.3,3.61,17.56,9.88
			c5.47-6.39,11.98-9.88,20.47-9.88c13.14,0,21.05,7.91,21.05,22.91v40.59h-17.68v-34.77c0-8.37-3.72-12.67-10.35-12.67
			c-6.63,0-10.7,4.3-10.7,12.67v34.77h-17.68v-34.77c0-8.37-3.72-12.67-10.35-12.67c-6.63,0-10.7,4.3-10.7,12.67v34.77h-17.68
			V1442.78z"/>
		<path class="st0" d="M1365.45,1474.29v-0.23c0-17.79,12.68-32.44,30.82-32.44c20.82,0,30.35,16.17,30.35,33.84
			c0,1.4-0.12,3.03-0.23,4.65h-43.38c1.74,8.02,7.33,12.21,15.23,12.21c5.93,0,10.24-1.86,15.12-6.39l10.12,8.96
			c-5.82,7.21-14.19,11.63-25.47,11.63C1379.29,1506.5,1365.45,1493.36,1365.45,1474.29z M1409.41,1469.06
			c-1.05-7.91-5.7-13.26-13.14-13.26c-7.33,0-12.09,5.23-13.49,13.26H1409.41z"/>
		<path class="st0" d="M1428.13,1442.78h17.67v8.83c4.07-5.23,9.3-10,18.26-10c13.37,0,21.17,8.84,21.17,23.14v40.35h-17.68v-34.77
			c0-8.37-3.95-12.67-10.7-12.67c-6.74,0-11.05,4.3-11.05,12.67v34.77h-17.67V1442.78z"/>
		<path class="st0" d="M1491.86,1487.43v-29.54h-7.44v-15.12h7.44v-15.93h17.68v15.93h14.65v15.12h-14.65v26.63
			c0,4.07,1.74,6.05,5.7,6.05c3.26,0,6.16-0.81,8.72-2.21v14.19c-3.72,2.21-8.02,3.61-13.95,3.61
			C1499.18,1506.15,1491.86,1501.85,1491.86,1487.43z"/>
	</g>
	<g>
		<g>
			
				<linearGradient id="SVGID_1_" gradientUnits="userSpaceOnUse" x1="1695.4563" y1="2093.2358" x2="1695.4563" y2="1468.5493" gradientTransform="matrix(1 0 0 -1 0 2748.0823)">
				<stop  offset="0" style="stop-color:#3FA9F5"/>
				<stop  offset="1" style="stop-color:#00A99D"/>
			</linearGradient>
			<path class="st1" d="M1571.39,654.85c133.55,23.35,170.77,70.06,170.77,144.5c0,10.95-2.19,37.95-2.19,50.35
				c0,56.92,23.35,75.17,80.27,75.17h18.97v84.65h-18.97c-56.92,0-80.27,18.24-80.27,75.17c0,12.41,2.19,39.41,2.19,50.35
				c0,74.44-37.22,121.14-170.77,144.49l-19.7-73.71c77.36-21.89,89.03-42.33,89.03-86.84c0-14.6-2.19-38.68-2.19-54
				c0-53.27,27-81.73,75.9-97.79c-48.89-16.05-75.9-44.51-75.9-97.79c0-15.33,2.19-39.41,2.19-54c0-44.51-11.68-64.95-89.03-86.84
				L1571.39,654.85z"/>
		</g>
		<g>
			
				<linearGradient id="SVGID_00000106129122544370015620000000783730054850635701_" gradientUnits="userSpaceOnUse" x1="224.5428" y1="2093.2358" x2="224.5428" y2="1468.5493" gradientTransform="matrix(1 0 0 -1 0 2748.0823)">
				<stop  offset="0" style="stop-color:#3FA9F5"/>
				<stop  offset="1" style="stop-color:#00A99D"/>
			</linearGradient>
			<path style="fill:url(#SVGID_00000106129122544370015620000000783730054850635701_);" d="M348.6,654.85l19.7,73.71
				c-77.36,21.89-89.03,42.33-89.03,86.84c0,14.6,2.19,38.68,2.19,54c0,53.27-27,81.73-75.9,97.79
				c48.89,16.06,75.9,44.52,75.9,97.79c0,15.33-2.19,39.41-2.19,54c0,44.52,11.68,64.95,89.03,86.84l-19.7,73.71
				c-133.55-23.35-170.77-70.06-170.77-144.49c0-10.95,2.19-37.95,2.19-50.35c0-56.92-23.35-75.17-80.28-75.17H80.78v-84.65h18.97
				c56.92,0,80.28-18.24,80.28-75.17c0-12.4-2.19-39.41-2.19-50.35C177.84,724.9,215.06,678.2,348.6,654.85z"/>
		</g>
	</g>
	<g>
		<g>
			
				<linearGradient id="SVGID_00000139256632272306912270000002369816120063626173_" gradientUnits="userSpaceOnUse" x1="622.9348" y1="967.1897" x2="622.9348" y2="545.3899">
				<stop  offset="0" style="stop-color:#00A99D"/>
				<stop  offset="1" style="stop-color:#3FA9F5"/>
			</linearGradient>
			<path style="fill:url(#SVGID_00000139256632272306912270000002369816120063626173_);" d="M412.03,545.39h100.03l110.87,178.36
				l110.88-178.36h100.03v421.8h-92.2V691.81L622.93,871.98h-2.41l-117.5-178.36v273.57h-90.99V545.39z"/>
			
				<linearGradient id="SVGID_00000159444546740732794210000015558333034812910779_" gradientUnits="userSpaceOnUse" x1="1030.6516" y1="967.1897" x2="1030.6516" y2="545.3899">
				<stop  offset="0" style="stop-color:#00A99D"/>
				<stop  offset="1" style="stop-color:#3FA9F5"/>
			</linearGradient>
			<path style="fill:url(#SVGID_00000159444546740732794210000015558333034812910779_);" d="M987.87,545.39h85.56l180.78,421.8
				h-97.02l-38.56-93.93H940.27l-38.56,93.93h-94.6L987.87,545.39z M1085.48,791.89l-56.04-135.81L973.4,791.89H1085.48z"/>
			
				<linearGradient id="SVGID_00000157271617126411484170000009889101169223963801_" gradientUnits="userSpaceOnUse" x1="1336.386" y1="967.1897" x2="1336.386" y2="545.3899">
				<stop  offset="0" style="stop-color:#00A99D"/>
				<stop  offset="1" style="stop-color:#3FA9F5"/>
			</linearGradient>
			<path style="fill:url(#SVGID_00000157271617126411484170000009889101169223963801_);" d="M1289.98,800.88L1127.9,545.39h108.46
				l100.63,169.32l102.44-169.32h105.45l-162.09,253.68v168.12h-92.8V800.88z"/>
		</g>
		<g>
			
				<linearGradient id="SVGID_00000135687508546045199020000004071697057359737250_" gradientUnits="userSpaceOnUse" x1="606.3636" y1="1388.9895" x2="606.3636" y2="967.1897">
				<stop  offset="0" style="stop-color:#00A99D"/>
				<stop  offset="1" style="stop-color:#3FA9F5"/>
			</linearGradient>
			<path style="fill:url(#SVGID_00000135687508546045199020000004071697057359737250_);" d="M412.03,967.19h164.5
				c132.56,0,224.16,90.99,224.16,209.69v1.21c0,118.71-91.59,210.9-224.16,210.9h-164.5V967.19z M576.54,1305.23
				c75.92,0,127.14-51.22,127.14-125.94v-1.2c0-74.72-51.22-127.14-127.14-127.14h-71.71v254.29H576.54z"/>
			
				<linearGradient id="SVGID_00000090262418652929758170000016035700017981073074_" gradientUnits="userSpaceOnUse" x1="961.2797" y1="1388.9895" x2="961.2797" y2="967.1897">
				<stop  offset="0" style="stop-color:#00A99D"/>
				<stop  offset="1" style="stop-color:#3FA9F5"/>
			</linearGradient>
			<path style="fill:url(#SVGID_00000090262418652929758170000016035700017981073074_);" d="M800.69,967.19h321.17v82.55H892.89
				v85.56h198.85v82.55H892.89v88.58h228.98v82.55H800.69V967.19z"/>
			
				<linearGradient id="SVGID_00000152952568412722937100000004823945914219533999_" gradientUnits="userSpaceOnUse" x1="1333.37" y1="1388.9895" x2="1333.37" y2="967.1897">
				<stop  offset="0" style="stop-color:#00A99D"/>
				<stop  offset="1" style="stop-color:#3FA9F5"/>
			</linearGradient>
			<path style="fill:url(#SVGID_00000152952568412722937100000004823945914219533999_);" d="M1121.87,967.19h102.44l110.27,294.96
				l110.27-294.96h100.03l-170.53,421.8h-81.95L1121.87,967.19z"/>
		</g>
	</g>
</g>
</svg>
